<svg xmlns="http://www.w3.org/2000/svg" xmlns:xlink="http://www.w3.org/1999/xlink" version="1.1" id="Layer_1" x="0px"
  y="0px" viewBox="0 0 882.7 688.6" style="enable-background:new 0 0 882.7 688.6;" xml:space="preserve">
  <style type="text/css">
    .st0 {
      fill: #FFFFFF;
    }

    .st1 {
      fill: #009900;
    }
  </style>
  <path class="st1"
    d="M181.1,663.1c-4.7,0-9.3-1.8-12.8-5.3L61.3,550.7v94.3c0,10-8.1,18-18,18s-18-8.1-18-18V507  c0-7.3,4.4-13.9,11.2-16.7c6.8-2.8,14.5-1.3,19.7,3.9l106.9,107V507c0-10,8.1-18,18-18c10,0,18,8.1,18,18v137.9  C199.2,654.9,191.1,663.1,181.1,663.1 M264.9,489.2l-5,9.3l-38.4,69.8l-5,8.8l5,8.8l38.4,67.6l5.2,9.2h100.6l5-10.2l28.7-57.9  l12.9-26.2h-29.1l-73.4,0.3c-9.6-0.2-18.4,8.6-18.4,18c0,9.6,8.8,18.2,18.4,18l44.3-0.3l-10.8,21.9h-57L258,576.7l28.5-51.5h60.6  l14.1,29h36.4l-22.9-55l-5-10.2H264.9 M448.1,488.9c-9.5,0.1-18,8.8-17.9,18.3v47.2h36.2v-47.2C466.5,497.6,457.7,488.7,448.1,488.9   M506.1,663.4c-10,0-18-8.1-18-18v-138c0-10,8.1-18,18-18c10,0,18,8.1,18,18v94.3l107-107c5.2-5.2,12.9-6.7,19.7-3.9  s11.2,9.4,11.2,16.7v137.9c0,10-8.1,18-18,18c-10,0-18-8.1-18-18V551L518.9,658.1C515.5,661.5,510.9,663.4,506.1,663.4 M796.1,576.2  l56.2-56.1c7.1-7.1,7.1-18.5,0.1-25.6c-7.1-7.1-18.5-7.1-25.6-0.1l-56.3,56.2l-56.3-56.2c-7.1-7.1-18.5-7.1-25.6,0.1  c-7.1,7.1-7.1,18.5,0,25.6l56.2,56.1l-56.1,55.9c-7.1,7.1-7.1,18.5-0.1,25.6c3.4,3.4,8,5.4,12.8,5.3c4.6,0,9.2-1.8,12.8-5.3l56.2-56  l56.2,56c3.4,3.4,8,5.3,12.8,5.3c4.6,0,9.3-1.8,12.8-5.3c7.1-7.1,7.1-18.5-0.1-25.6L796.1,576.2z M448.1,662.9  c-9.5-0.1-18-8.8-17.9-18.3v-75.7h36.2v75.7C466.5,654.2,457.7,663,448.1,662.9" />
  <path class="st1"
    d="M614.6,463.2c-11.8,0-23.5-4.6-32.2-13.3L313.1,180.5v237.2c0,25.2-20.4,45.5-45.5,45.5s-45.5-20.4-45.5-45.5  v-347c0-18.5,11.1-35,28.1-42.1s36.6-3.2,49.6,9.9l269.3,269.4V70.7c0-25.2,20.4-45.5,45.5-45.5c25.2,0,45.5,20.4,45.5,45.5v347.1  C660.1,442.9,639.8,463.2,614.6,463.2" />
</svg>