<svg xmlns="http://www.w3.org/2000/svg" xmlns:xlink="http://www.w3.org/1999/xlink" width="2500" height="1533"
  viewBox="0 -25 512 314" preserveAspectRatio="xMidYMid">
  <defs>
    <linearGradient x1="68.188%" y1="17.487%" x2="27.823%" y2="89.755%" id="b">
      <stop stop-color="#41873F" offset="0%" />
      <stop stop-color="#418B3D" offset="32.88%" />
      <stop stop-color="#419637" offset="63.52%" />
      <stop stop-color="#3FA92D" offset="93.19%" />
      <stop stop-color="#3FAE2A" offset="100%" />
    </linearGradient>
    <path id="a"
      d="M57.903 1.85a5.957 5.957 0 0 0-5.894 0L3.352 29.933c-1.85 1.04-2.89 3.005-2.89 5.085v56.286c0 2.08 1.156 4.045 2.89 5.085l48.657 28.085a5.957 5.957 0 0 0 5.894 0l48.658-28.085c1.849-1.04 2.89-3.005 2.89-5.085V35.019c0-2.08-1.157-4.045-2.89-5.085L57.903 1.85z" />
    <linearGradient x1="43.277%" y1="55.169%" x2="159.245%" y2="-18.306%" id="d">
      <stop stop-color="#41873F" offset="13.76%" />
      <stop stop-color="#54A044" offset="40.32%" />
      <stop stop-color="#66B848" offset="71.36%" />
      <stop stop-color="#6CC04A" offset="90.81%" />
    </linearGradient>
    <linearGradient x1="-4413.77%" y1="13.43%" x2="5327.93%" y2="13.43%" id="e">
      <stop stop-color="#6CC04A" offset="9.192%" />
      <stop stop-color="#66B848" offset="28.64%" />
      <stop stop-color="#54A044" offset="59.68%" />
      <stop stop-color="#41873F" offset="86.24%" />
    </linearGradient>
    <linearGradient x1="-4.389%" y1="49.997%" x2="101.499%" y2="49.997%" id="f">
      <stop stop-color="#6CC04A" offset="9.192%" />
      <stop stop-color="#66B848" offset="28.64%" />
      <stop stop-color="#54A044" offset="59.68%" />
      <stop stop-color="#41873F" offset="86.24%" />
    </linearGradient>
    <linearGradient x1="-9713.77%" y1="36.21%" x2="27.93%" y2="36.21%" id="g">
      <stop stop-color="#6CC04A" offset="9.192%" />
      <stop stop-color="#66B848" offset="28.64%" />
      <stop stop-color="#54A044" offset="59.68%" />
      <stop stop-color="#41873F" offset="86.24%" />
    </linearGradient>
    <linearGradient x1="-103.861%" y1="50.275%" x2="100.797%" y2="50.275%" id="h">
      <stop stop-color="#6CC04A" offset="9.192%" />
      <stop stop-color="#66B848" offset="28.64%" />
      <stop stop-color="#54A044" offset="59.68%" />
      <stop stop-color="#41873F" offset="86.24%" />
    </linearGradient>
    <linearGradient x1="130.613%" y1="-211.069%" x2="4.393%" y2="201.605%" id="i">
      <stop stop-color="#41873F" offset="0%" />
      <stop stop-color="#418B3D" offset="32.88%" />
      <stop stop-color="#419637" offset="63.52%" />
      <stop stop-color="#3FA92D" offset="93.19%" />
      <stop stop-color="#3FAE2A" offset="100%" />
    </linearGradient>
  </defs>
  <g fill="none">
    <path
      d="M110.028 104.712c0-2.08-1.156-4.046-3.005-5.086l-49.004-28.2c-.81-.463-1.734-.694-2.658-.81h-.463c-.924 0-1.849.347-2.658.81l-49.004 28.2c-1.85 1.04-3.005 3.005-3.005 5.086l.116 75.817c0 1.04.578 2.08 1.502 2.543.925.578 2.08.578 2.89 0l29.125-16.643c1.849-1.04 3.005-3.005 3.005-5.085v-35.482c0-2.08 1.155-4.045 3.005-5.085l12.366-7.166c.925-.578 1.965-.81 3.005-.81 1.04 0 2.08.232 2.89.81l12.366 7.166c1.85 1.04 3.005 3.004 3.005 5.085v35.482c0 2.08 1.156 4.045 3.005 5.085l29.125 16.643c.925.578 2.08.578 3.005 0 .925-.463 1.503-1.503 1.503-2.543l-.116-75.817zM345.571.347c-.924-.463-2.08-.463-2.89 0-.924.578-1.502 1.502-1.502 2.542v75.125c0 .693-.346 1.386-1.04 1.849-.693.346-1.387.346-2.08 0l-12.251-7.05a5.957 5.957 0 0 0-5.895 0l-49.004 28.316c-1.849 1.04-3.005 3.005-3.005 5.085v56.516c0 2.08 1.156 4.046 3.005 5.086l49.004 28.316a5.957 5.957 0 0 0 5.895 0l49.004-28.316c1.849-1.04 3.005-3.005 3.005-5.086V21.844c0-2.196-1.156-4.16-3.005-5.201L345.572.347zm-4.507 143.776c0 .578-.231 1.04-.694 1.271l-16.758 9.708a1.714 1.714 0 0 1-1.503 0l-16.758-9.708c-.463-.231-.694-.809-.694-1.271v-19.417c0-.578.231-1.04.694-1.271l16.758-9.709a1.714 1.714 0 0 1 1.503 0l16.758 9.709c.463.23.694.809.694 1.271v19.417zM508.648 124.244c1.85-1.04 2.89-3.005 2.89-5.086v-13.753c0-2.08-1.156-4.045-2.89-5.085l-48.657-28.2a5.957 5.957 0 0 0-5.894 0l-49.004 28.315c-1.85 1.04-3.005 3.005-3.005 5.086v56.516c0 2.08 1.155 4.045 3.005 5.085l48.657 27.738c1.85 1.04 4.045 1.04 5.779 0L489 178.45c.925-.463 1.503-1.503 1.503-2.543 0-1.04-.578-2.08-1.503-2.543l-49.235-28.316c-.924-.577-1.502-1.502-1.502-2.542v-17.683c0-1.04.578-2.08 1.502-2.543l15.372-8.784a2.821 2.821 0 0 1 3.005 0l15.371 8.784c.925.578 1.503 1.502 1.503 2.543v13.869c0 1.04.578 2.08 1.502 2.542.925.578 2.08.578 3.005 0l29.125-16.99z"
      fill="#333" />
    <path
      d="M456.293 121.586a1.05 1.05 0 0 1 1.155 0l9.362 5.432c.347.23.578.577.578 1.04v10.864c0 .462-.231.809-.578 1.04l-9.362 5.432a1.05 1.05 0 0 1-1.155 0l-9.362-5.432c-.347-.231-.578-.578-.578-1.04v-10.864c0-.463.231-.81.578-1.04l9.362-5.432z"
      fill="#539E43" />
    <g transform="translate(134.068 70.501)">
      <mask id="c" fill="#fff">
        <use xlink:href="#a" />
      </mask>
      <use fill="url(#b)" xlink:href="#a" />
      <g mask="url(#c)">
        <path
          d="M51.893 1.85L3.121 29.933C1.27 30.974 0 32.94 0 35.02v56.286c0 1.387.578 2.658 1.502 3.698L56.285 1.156c-1.387-.231-3.005-.116-4.392.693zM56.632 125.053c.462-.116.925-.347 1.387-.578l48.773-28.085c1.85-1.04 3.005-3.005 3.005-5.085V35.019c0-1.502-.694-3.005-1.734-4.045l-51.43 94.079z" />
        <path
          d="M106.676 29.934L57.788 1.85a8.025 8.025 0 0 0-1.503-.578L1.502 95.12a6.082 6.082 0 0 0 1.619 1.387l48.888 28.085c1.387.809 3.005 1.04 4.507.577l51.432-94.078c-.347-.462-.81-.81-1.272-1.156z"
          fill="url(#d)" />
      </g>
      <g mask="url(#c)">
        <path
          d="M109.797 91.305V35.019c0-2.08-1.271-4.045-3.12-5.085L57.786 1.85a5.106 5.106 0 0 0-1.848-.693l53.511 91.42c.231-.347.347-.809.347-1.271zM3.12 29.934C1.272 30.974 0 32.94 0 35.02v56.286c0 2.08 1.387 4.045 3.12 5.085l48.889 28.085c1.156.693 2.427.925 3.814.693L3.467 29.818l-.346.116z" />
        <path fill="url(#e)" fill-rule="evenodd" d="M50.391.809l-.693.347h.924l-.231-.347z"
          transform="translate(0 -9.246)" />
        <path
          d="M106.792 105.636c1.387-.809 2.427-2.196 2.89-3.698L56.053 10.402c-1.387-.231-2.89-.116-4.16.693L3.351 39.065l52.355 95.465a8.057 8.057 0 0 0 2.196-.693l48.889-28.2z"
          fill="url(#f)" fill-rule="evenodd" transform="translate(0 -9.246)" />
        <path fill="url(#g)" fill-rule="evenodd" d="M111.3 104.712l-.347-.578v.809l.346-.231z"
          transform="translate(0 -9.246)" />
        <path
          d="M106.792 105.636l-48.773 28.085a6.973 6.973 0 0 1-2.196.693l.925 1.734 54.089-31.32v-.694l-1.387-2.312c-.231 1.618-1.271 3.005-2.658 3.814z"
          fill="url(#h)" fill-rule="evenodd" transform="translate(0 -9.246)" />
        <path
          d="M106.792 105.636l-48.773 28.085a6.973 6.973 0 0 1-2.196.693l.925 1.734 54.089-31.32v-.694l-1.387-2.312c-.231 1.618-1.271 3.005-2.658 3.814z"
          fill="url(#i)" fill-rule="evenodd" transform="translate(0 -9.246)" />
      </g>
    </g>
  </g>
</svg>